<?xml version="1.0" encoding="utf-8"?>
<!-- Generator: Adobe Illustrator 25.4.1, SVG Export Plug-In . SVG Version: 6.00 Build 0)  -->
<svg version="1.1" id="Layer_1" xmlns="http://www.w3.org/2000/svg" xmlns:xlink="http://www.w3.org/1999/xlink" x="0px" y="0px"
	 viewBox="0 0 1785.8 959.2" style="enable-background:new 0 0 1785.8 959.2;" xml:space="preserve">
<style type="text/css">
	.st0{fill:#EDEDED;}
	.st1{fill:none;stroke:#000000;stroke-width:2;stroke-linejoin:round;stroke-miterlimit:10;}
	.st2{font-family:'MyriadPro-Regular';}
	.st3{font-size:34px;}
	.st4{opacity:0.69;}
	.st5{fill:#F9B233;}
	.st6{font-size:30px;}
	.st7{fill:none;stroke:#000000;stroke-width:2;stroke-linecap:square;stroke-linejoin:round;stroke-miterlimit:10;}
	.st8{fill:none;stroke:#000000;stroke-width:2;stroke-linejoin:round;}
	.st9{fill:none;stroke:#000000;stroke-width:2;stroke-linecap:square;stroke-linejoin:round;}
</style>
<g>
	<g>
		<path class="st0" d="M1007.9,104.6c0,15.6-12.8,28.3-28.3,28.3H818c-15.6,0-28.3-12.8-28.3-28.3V67.5c0-15.6,12.8-28.3,28.3-28.3
			h161.6c15.6,0,28.3,12.8,28.3,28.3V104.6z"/>
		<path class="st1" d="M1007.9,104.6c0,15.6-12.8,28.3-28.3,28.3H818c-15.6,0-28.3-12.8-28.3-28.3V67.5c0-15.6,12.8-28.3,28.3-28.3
			h161.6c15.6,0,28.3,12.8,28.3,28.3V104.6z"/>
	</g>
	<text transform="matrix(1 0 0 1 859.6202 96.0138)" class="st2 st3">Panel</text>
</g>
<g>
	<g>
		<g>
			<path class="st0" d="M603.6,301.2c0,15.6-12.8,28.3-28.3,28.3H413.7c-15.6,0-28.3-12.8-28.3-28.3v-37.1
				c0-15.6,12.8-28.3,28.3-28.3h161.6c15.6,0,28.3,12.8,28.3,28.3V301.2z"/>
			<path class="st1" d="M603.6,301.2c0,15.6-12.8,28.3-28.3,28.3H413.7c-15.6,0-28.3-12.8-28.3-28.3v-37.1
				c0-15.6,12.8-28.3,28.3-28.3h161.6c15.6,0,28.3,12.8,28.3,28.3V301.2z"/>
		</g>
		<text transform="matrix(1 0 0 1 440.1519 292.6479)" class="st2 st3">DotPlot</text>
	</g>
	<g>
		<g>
			<path class="st0" d="M1254.3,301.2c0,15.6-12.8,28.3-28.3,28.3h-161.6c-15.6,0-28.3-12.8-28.3-28.3v-37.1
				c0-15.6,12.8-28.3,28.3-28.3H1226c15.6,0,28.3,12.8,28.3,28.3V301.2z"/>
			<path class="st1" d="M1254.3,301.2c0,15.6-12.8,28.3-28.3,28.3h-161.6c-15.6,0-28.3-12.8-28.3-28.3v-37.1
				c0-15.6,12.8-28.3,28.3-28.3H1226c15.6,0,28.3,12.8,28.3,28.3V301.2z"/>
		</g>
		<text transform="matrix(1 0 0 1 1106.3721 292.6481)" class="st2 st3">Table</text>
	</g>
	<g class="st4">
		<path class="st5" d="M1761.4,303.6c0,15.6-12.8,28.3-28.3,28.3h-161.6c-15.6,0-28.3-12.8-28.3-28.3v-37.1
			c0-15.6,12.8-28.3,28.3-28.3H1733c15.6,0,28.3,12.8,28.3,28.3V303.6z"/>
		<path class="st1" d="M1761.4,303.6c0,15.6-12.8,28.3-28.3,28.3h-161.6c-15.6,0-28.3-12.8-28.3-28.3v-37.1
			c0-15.6,12.8-28.3,28.3-28.3H1733c15.6,0,28.3,12.8,28.3,28.3V303.6z"/>
	</g>
	<text transform="matrix(1 0 0 1 1596.2751 275.861)"><tspan x="0" y="0" class="st2 st6">Complex</tspan><tspan x="-26.5" y="36" class="st2 st6">HeatmapPlot</tspan></text>
</g>
<g>
	<g>
		<g>
			<path class="st0" d="M403.5,500.3c0,15.6-12.8,28.3-28.3,28.3H213.6c-15.6,0-28.3-12.8-28.3-28.3v-37.1
				c0-15.6,12.8-28.3,28.3-28.3h161.6c15.6,0,28.3,12.8,28.3,28.3V500.3z"/>
			<path class="st1" d="M403.5,500.3c0,15.6-12.8,28.3-28.3,28.3H213.6c-15.6,0-28.3-12.8-28.3-28.3v-37.1
				c0-15.6,12.8-28.3,28.3-28.3h161.6c15.6,0,28.3,12.8,28.3,28.3V500.3z"/>
		</g>
		<text transform="matrix(1 0 0 1 238.2202 471.2694)"><tspan x="0" y="0" class="st2 st3">Column</tspan><tspan x="1.9" y="40.8" class="st2 st3">DotPlot</tspan></text>
	</g>
	<g>
		<g>
			<path class="st0" d="M796.7,500.3c0,15.6-12.8,28.3-28.3,28.3H606.8c-15.6,0-28.3-12.8-28.3-28.3v-37.1
				c0-15.6,12.8-28.3,28.3-28.3h161.6c15.6,0,28.3,12.8,28.3,28.3V500.3z"/>
			<path class="st1" d="M796.7,500.3c0,15.6-12.8,28.3-28.3,28.3H606.8c-15.6,0-28.3-12.8-28.3-28.3v-37.1
				c0-15.6,12.8-28.3,28.3-28.3h161.6c15.6,0,28.3,12.8,28.3,28.3V500.3z"/>
		</g>
		<text transform="matrix(1 0 0 1 656.5925 471.2691)"><tspan x="0" y="0" class="st2 st3">Row</tspan><tspan x="-23.3" y="40.8" class="st2 st3">DotPlot</tspan></text>
	</g>
	<g>
		<g>
			<path class="st0" d="M1113.6,500.3c0,15.6-12.8,28.3-28.3,28.3H923.7c-15.6,0-28.3-12.8-28.3-28.3v-37.1
				c0-15.6,12.8-28.3,28.3-28.3h161.6c15.6,0,28.3,12.8,28.3,28.3V500.3z"/>
			<path class="st1" d="M1113.6,500.3c0,15.6-12.8,28.3-28.3,28.3H923.7c-15.6,0-28.3-12.8-28.3-28.3v-37.1
				c0-15.6,12.8-28.3,28.3-28.3h161.6c15.6,0,28.3,12.8,28.3,28.3V500.3z"/>
		</g>
		<text transform="matrix(1 0 0 1 948.3065 471.269)"><tspan x="0" y="0" class="st2 st3">Column</tspan><tspan x="17.3" y="40.8" class="st2 st3">Table</tspan></text>
	</g>
	<g>
		<g>
			<path class="st0" d="M1388.1,500.3c0,15.6-12.8,28.3-28.3,28.3h-161.6c-15.6,0-28.3-12.8-28.3-28.3v-37.1
				c0-15.6,12.8-28.3,28.3-28.3h161.6c15.6,0,28.3,12.8,28.3,28.3V500.3z"/>
			<path class="st1" d="M1388.1,500.3c0,15.6-12.8,28.3-28.3,28.3h-161.6c-15.6,0-28.3-12.8-28.3-28.3v-37.1
				c0-15.6,12.8-28.3,28.3-28.3h161.6c15.6,0,28.3,12.8,28.3,28.3V500.3z"/>
		</g>
		<text transform="matrix(1 0 0 1 1248.0264 471.2693)"><tspan x="0" y="0" class="st2 st3">Row</tspan><tspan x="-7.9" y="40.8" class="st2 st3">Table</tspan></text>
	</g>
</g>
<g>
	<g>
		<g class="st4">
			<path class="st5" d="M263.1,895.9c0,15.6-12.8,28.3-28.3,28.3H73.2c-15.6,0-28.3-12.8-28.3-28.3v-37.1
				c0-15.6,12.8-28.3,28.3-28.3h161.6c15.6,0,28.3,12.8,28.3,28.3V895.9z"/>
			<path class="st1" d="M263.1,895.9c0,15.6-12.8,28.3-28.3,28.3H73.2c-15.6,0-28.3-12.8-28.3-28.3v-37.1
				c0-15.6,12.8-28.3,28.3-28.3h161.6c15.6,0,28.3,12.8,28.3,28.3V895.9z"/>
		</g>
		<text transform="matrix(1 0 0 1 106.2717 868.1506)"><tspan x="0" y="0" class="st2 st6">Feature</tspan><tspan x="-12.4" y="36" class="st2 st6">AssayPlot</tspan></text>
	</g>
	<g>
		<g class="st4">
			<path class="st5" d="M527.5,895.9c0,15.6-12.8,28.3-28.3,28.3H337.6c-15.6,0-28.3-12.8-28.3-28.3v-37.1
				c0-15.6,12.8-28.3,28.3-28.3h161.6c15.6,0,28.3,12.8,28.3,28.3V895.9z"/>
			<path class="st1" d="M527.5,895.9c0,15.6-12.8,28.3-28.3,28.3H337.6c-15.6,0-28.3-12.8-28.3-28.3v-37.1
				c0-15.6,12.8-28.3,28.3-28.3h161.6c15.6,0,28.3,12.8,28.3,28.3V895.9z"/>
		</g>
		<text transform="matrix(1 0 0 1 368.7638 868.1502)"><tspan x="0" y="0" class="st2 st6">Column</tspan><tspan x="-4.6" y="36" class="st2 st6">DataPlot</tspan></text>
	</g>
	<g>
		<g class="st4">
			<path class="st5" d="M880.4,895.9c0,15.6-12.8,28.3-28.3,28.3H690.5c-15.6,0-28.3-12.8-28.3-28.3v-37.1
				c0-15.6,12.8-28.3,28.3-28.3h161.6c15.6,0,28.3,12.8,28.3,28.3V895.9z"/>
			<path class="st1" d="M880.4,895.9c0,15.6-12.8,28.3-28.3,28.3H690.5c-15.6,0-28.3-12.8-28.3-28.3v-37.1
				c0-15.6,12.8-28.3,28.3-28.3h161.6c15.6,0,28.3,12.8,28.3,28.3V895.9z"/>
		</g>
		<text transform="matrix(1 0 0 1 743.9409 868.1501)"><tspan x="0" y="0" class="st2 st6">Row</tspan><tspan x="-26.8" y="36" class="st2 st6">DataPlot</tspan></text>
	</g>
</g>
<g>
	<g>
		<g class="st4">
			<path class="st5" d="M744.4,699.7c0,15.6-12.8,28.3-28.3,28.3H554.5c-15.6,0-28.3-12.8-28.3-28.3v-37.1
				c0-15.6,12.8-28.3,28.3-28.3h161.6c15.6,0,28.3,12.8,28.3,28.3V699.7z"/>
			<path class="st1" d="M744.4,699.7c0,15.6-12.8,28.3-28.3,28.3H554.5c-15.6,0-28.3-12.8-28.3-28.3v-37.1
				c0-15.6,12.8-28.3,28.3-28.3h161.6c15.6,0,28.3,12.8,28.3,28.3V699.7z"/>
		</g>
		<text transform="matrix(1 0 0 1 588.5861 671.9504)"><tspan x="0" y="0" class="st2 st6">Sample</tspan><tspan x="-13.3" y="36" class="st2 st6">AssayPlot</tspan></text>
	</g>
	<g class="st4">
		<path class="st5" d="M1117.1,699.7c0,15.6-12.8,28.3-28.3,28.3H927.2c-15.6,0-28.3-12.8-28.3-28.3v-37.1
			c0-15.6,12.8-28.3,28.3-28.3h161.6c15.6,0,28.3,12.8,28.3,28.3V699.7z"/>
		<path class="st1" d="M1117.1,699.7c0,15.6-12.8,28.3-28.3,28.3H927.2c-15.6,0-28.3-12.8-28.3-28.3v-37.1
			c0-15.6,12.8-28.3,28.3-28.3h161.6c15.6,0,28.3,12.8,28.3,28.3V699.7z"/>
	</g>
	<text transform="matrix(1 0 0 1 958.3714 671.9496)"><tspan x="0" y="0" class="st2 st6">Column</tspan><tspan x="-14.1" y="36" class="st2 st6">DataTable</tspan></text>
	<g class="st4">
		<path class="st5" d="M1391.6,699.7c0,15.6-12.8,28.3-28.3,28.3h-161.6c-15.6,0-28.3-12.8-28.3-28.3v-37.1
			c0-15.6,12.8-28.3,28.3-28.3h161.6c15.6,0,28.3,12.8,28.3,28.3V699.7z"/>
		<path class="st1" d="M1391.6,699.7c0,15.6-12.8,28.3-28.3,28.3h-161.6c-15.6,0-28.3-12.8-28.3-28.3v-37.1
			c0-15.6,12.8-28.3,28.3-28.3h161.6c15.6,0,28.3,12.8,28.3,28.3V699.7z"/>
	</g>
	<text transform="matrix(1 0 0 1 1255.1139 671.9496)"><tspan x="0" y="0" class="st2 st6">Row</tspan><tspan x="-36.3" y="36" class="st2 st6">DataTable</tspan></text>
	<g>
		<g class="st4">
			<path class="st5" d="M395.3,696.5c0,15.6-12.8,28.3-28.3,28.3H205.4c-15.6,0-28.3-12.8-28.3-28.3v-37.1
				c0-15.6,12.8-28.3,28.3-28.3h161.6c15.6,0,28.3,12.8,28.3,28.3V696.5z"/>
			<path class="st1" d="M395.3,696.5c0,15.6-12.8,28.3-28.3,28.3H205.4c-15.6,0-28.3-12.8-28.3-28.3v-37.1
				c0-15.6,12.8-28.3,28.3-28.3h161.6c15.6,0,28.3,12.8,28.3,28.3V696.5z"/>
		</g>
		<text transform="matrix(1 0 0 1 231.15 668.6958)"><tspan x="0" y="0" class="st2 st6">Reduced</tspan><tspan x="-37.6" y="36" class="st2 st6">DimensionPlot</tspan></text>
	</g>
</g>
<line class="st1" x1="895.4" y1="132.9" x2="895.4" y2="165"/>
<line class="st7" x1="895.4" y1="165" x2="494.4" y2="165"/>
<g>
	<g>
		<line class="st8" x1="494.4" y1="165" x2="494.4" y2="226.1"/>
		<g>
			<path d="M494.4,238.1c-2.1-5.7-5.7-12.7-9.5-17.1l9.5,3.4l9.5-3.4C500.2,225.4,496.6,232.5,494.4,238.1z"/>
		</g>
	</g>
</g>
<line class="st1" x1="1652.3" y1="165" x2="895.4" y2="165"/>
<g>
	<g>
		<line class="st8" x1="1145.2" y1="165" x2="1145.2" y2="226.1"/>
		<g>
			<path d="M1145.2,238.1c-2.1-5.7-5.7-12.7-9.5-17.1l9.5,3.4l9.5-3.4C1150.9,225.4,1147.3,232.5,1145.2,238.1z"/>
		</g>
	</g>
</g>
<line class="st7" x1="494.9" y1="366.4" x2="294.4" y2="366.4"/>
<line class="st1" x1="694.9" y1="366.5" x2="494.9" y2="366.3"/>
<g>
	<g>
		<line class="st8" x1="294.4" y1="366.4" x2="294.4" y2="421.6"/>
		<g>
			<path d="M294.4,433.7c-2.1-5.7-5.7-12.7-9.5-17.1l9.5,3.4l9.5-3.4C300.1,420.9,296.5,428,294.4,433.7z"/>
		</g>
	</g>
</g>
<g>
	<g>
		<line class="st9" x1="694.9" y1="366.5" x2="694.4" y2="422.5"/>
		<g>
			<path d="M694.3,434.6c-2.1-5.7-5.6-12.8-9.4-17.2l9.5,3.5l9.5-3.4C700.1,421.9,696.5,428.9,694.3,434.6z"/>
		</g>
	</g>
</g>
<line class="st7" x1="494.4" y1="329.6" x2="494.9" y2="366.4"/>
<g>
	<g>
		<line class="st8" x1="294.4" y1="529.7" x2="294.4" y2="618.9"/>
		<g>
			<path d="M294.4,631c-2.1-5.7-5.7-12.7-9.5-17.1l9.5,3.4l9.5-3.4C300.1,618.3,296.5,625.3,294.4,631z"/>
		</g>
	</g>
</g>
<g>
	<g>
		<line class="st8" x1="418.3" y1="573.6" x2="418.3" y2="817.3"/>
		<g>
			<path d="M418.3,829.3c-2.1-5.7-5.7-12.7-9.5-17.1l9.5,3.4l9.5-3.4C424,816.6,420.4,823.6,418.3,829.3z"/>
		</g>
	</g>
</g>
<g>
	<g>
		<line class="st8" x1="154" y1="573.6" x2="154" y2="817.3"/>
		<g>
			<path d="M154,829.3c-2.1-5.7-5.7-12.7-9.5-17.1l9.5,3.4l9.5-3.4C159.7,816.6,156.1,823.6,154,829.3z"/>
		</g>
	</g>
</g>
<line class="st7" x1="418.3" y1="573.6" x2="154" y2="573.6"/>
<g>
	<g>
		<line class="st8" x1="653.6" y1="573.6" x2="653.6" y2="622.8"/>
		<g>
			<path d="M653.6,634.9c-2.1-5.7-5.7-12.7-9.5-17.1l9.5,3.4l9.5-3.4C659.3,622.1,655.7,629.2,653.6,634.9z"/>
		</g>
	</g>
</g>
<g>
	<g>
		<line class="st8" x1="771.3" y1="573.6" x2="771.3" y2="817.3"/>
		<g>
			<path d="M771.3,829.3c-2.1-5.7-5.7-12.7-9.5-17.1l9.5,3.4l9.5-3.4C777,816.6,773.4,823.6,771.3,829.3z"/>
		</g>
	</g>
</g>
<line class="st7" x1="771.3" y1="573.6" x2="653.6" y2="573.6"/>
<line class="st7" x1="694.4" y1="529.5" x2="694.9" y2="573.6"/>
<line class="st7" x1="1145.4" y1="366.3" x2="1004.5" y2="367.5"/>
<line class="st1" x1="1279.3" y1="366.5" x2="1145.4" y2="366.2"/>
<g>
	<g>
		<line class="st8" x1="1004.5" y1="367.5" x2="1004.5" y2="422.7"/>
		<g>
			<path d="M1004.5,434.8c-2.1-5.7-5.7-12.7-9.5-17.1l9.5,3.4l9.5-3.4C1010.2,422.1,1006.6,429.1,1004.5,434.8z"/>
		</g>
	</g>
</g>
<g>
	<g>
		<line class="st9" x1="1279.3" y1="366.5" x2="1278.8" y2="422.5"/>
		<g>
			<path d="M1278.7,434.6c-2.1-5.7-5.6-12.8-9.4-17.2l9.5,3.5l9.5-3.4C1284.5,421.9,1280.9,428.9,1278.7,434.6z"/>
		</g>
	</g>
</g>
<line class="st7" x1="1145" y1="329.5" x2="1145.4" y2="366.3"/>
<g>
	<g>
		<line class="st8" x1="1004.5" y1="528.6" x2="1004.5" y2="622.2"/>
		<g>
			<path d="M1004.5,634.2c-2.1-5.7-5.7-12.7-9.5-17.1l9.5,3.4l9.5-3.4C1010.2,621.5,1006.6,628.6,1004.5,634.2z"/>
		</g>
	</g>
</g>
<g>
	<g>
		<line class="st8" x1="1279" y1="528.6" x2="1279" y2="622.2"/>
		<g>
			<path d="M1279,634.2c-2.1-5.7-5.7-12.7-9.5-17.1l9.5,3.4l9.5-3.4C1284.7,621.5,1281.1,628.6,1279,634.2z"/>
		</g>
	</g>
</g>
<g>
	<g>
		<line class="st8" x1="1652.3" y1="165" x2="1652.3" y2="226.1"/>
		<g>
			<path d="M1652.3,238.1c-2.1-5.7-5.7-12.7-9.5-17.1l9.5,3.4l9.5-3.4C1658,225.4,1654.4,232.5,1652.3,238.1z"/>
		</g>
	</g>
</g>
</svg>
